#!OML:ASF F:\VICON\USERDATA\INSTALL\rory7\rory7.ASF
:FULLY-SPECIFIED
:DEGREES
827
root -0.053807 18.7887 4.27294 -5.12725 -6.2484 -0.352772
lowerback 6.43048 1.17941 0.237029
upperback -2.20623 1.45865 -2.4443
thorax -5.83893 0.662214 -2.84822
lowerneck -9.69098 -5.37643 -7.06449
upperneck -19.7233 -5.53452 9.93164
head -3.80929 -2.65846 4.27972
rclavicle -1.50082e-014 1.98785e-014
rhumerus 53.4677 -16.2371 -44.4642
rradius 121.588
rwrist 15.6021
rhand -47.6799 18.1377
rfingers 7.12502
rthumb -20.3608 -10.8149
lclavicle -1.50082e-014 1.98785e-014
lhumerus -38.1687 15.8616 65.3452
lradius 19.5826
lwrist -11.3881
lhand -25.7371 21.3206
lfingers 7.12502
lthumb 0.799622 51.2988
rfemur 0 0 0
rtibia 0
rfoot 0 0
rtoes 0
lfemur 9.21358 -10.0017 -19.0228
ltibia 10.8928
lfoot -14.5543 22.4479
ltoes -4.25504
828
root -0.054292 18.7892 4.27129 -5.1319 -6.28308 -0.393683
lowerback 6.52773 1.17089 0.256159
upperback -2.2927 1.44681 -2.43592
thorax -5.98598 0.653542 -2.85413
lowerneck -9.79069 -5.34756 -7.13365
upperneck -19.8037 -5.46989 10.0201
head -3.81775 -2.62334 4.32011
rclavicle -6.36111e-015 3.02153e-014
rhumerus 53.6145 -16.314 -44.333
rradius 121.511
rwrist 15.6407
rhand -47.9866 17.8285
rfingers 7.12502
rthumb -20.6555 -11.0923
lclavicle -6.36111e-015 3.02153e-014
lhumerus -38.21 15.9984 65.2175
lradius 19.4529
lwrist -11.4455
lhand -25.6475 21.4543
lfingers 7.12502
lthumb 0.886218 51.4322
rfemur 0 0 0
rtibia 0
rfoot 0 0
rtoes 0
lfemur 9.2169 -10.0144 -18.9794
ltibia 10.8904
lfoot -14.5287 22.5087
ltoes -4.24387
829
root -0.0553463 18.7885 4.27026 -5.16764 -6.33014 -0.451795
lowerback 6.60867 1.17948 0.293537
upperback -2.34418 1.46086 -2.41978
thorax -6.08538 0.657858 -2.86374
lowerneck -9.79398 -5.36388 -7.18103
upperneck -20.0525 -5.47037 10.0698
head -3.88989 -2.6226 4.35166
rclavicle -2.57426e-014 2.38542e-014
rhumerus 53.7298 -16.4409 -44.1323
rradius 121.438
rwrist 15.6689
rhand -48.3157 17.7705
rfingers 7.12502
rthumb -20.9717 -11.1157
lclavicle -2.57426e-014 2.38542e-014
lhumerus -38.2117 16.1048 65.1301
lradius 19.3935
lwrist -11.5891
lhand -25.3718 21.5824
lfingers 7.12502
lthumb 1.15249 51.559
rfemur 0 0 0
rtibia 0
rfoot 0 0
rtoes 0
lfemur 9.26146 -10.1005 -18.9454
ltibia 10.9039
lfoot -14.5611 22.599
ltoes -4.19288
830
root -0.0570745 18.7869 4.27045 -5.21917 -6.34305 -0.459847
lowerback 6.60128 1.18531 0.31069
upperback -2.32437 1.46921 -2.44414
thorax -6.05884 0.661255 -2.89917
lowerneck -9.90827 -5.40682 -7.22359
upperneck -20.2511 -5.49617 10.166
head -3.92541 -2.63386 4.39226
rclavicle -9.93923e-015 -9.54166e-015
rhumerus 53.9145 -16.6712 -44.0285
rradius 121.449
rwrist 15.6092
rhand -48.316 17.844
rfingers 7.12502
rthumb -20.972 -11.0422
lclavicle -9.93923e-015 -9.54166e-015
lhumerus -38.0725 16.1732 65.0686
lradius 19.3365
lwrist -11.9052
lhand -25.4811 21.9867
lfingers 7.12502
lthumb 1.04692 51.9639
rfemur 0 0 0
rtibia 0
rfoot 0 0
rtoes 0
lfemur 9.31633 -10.1716 -18.9619
ltibia 10.9311
lfoot -14.6354 22.6228
ltoes -4.01795
831
root -0.058417 18.7868 4.26988 -5.24409 -6.34637 -0.4435
lowerback 6.58222 1.17696 0.298844
upperback -2.31975 1.45531 -2.47714
thorax -6.0433 0.654376 -2.92478
lowerneck -10.1466 -5.43026 -7.28602
upperneck -20.2725 -5.49379 10.2716
head -3.88877 -2.62702 4.43057
rclavicle -2.46493e-014 3.33958e-014
rhumerus 54.1279 -16.9024 -43.9993
rradius 121.464
rwrist 15.5083
rhand -48.2082 17.9122
rfingers 7.12502
rthumb -20.8685 -10.9854
lclavicle -2.46493e-014 3.33958e-014
lhumerus -37.9704 16.4479 64.8624
lradius 19.238
lwrist -12.5742
lhand -25.99 22.7442
lfingers 7.12502
lthumb 0.555444 52.7232
rfemur 0 0 0
rtibia 0
rfoot 0 0
rtoes 0
lfemur 9.34678 -10.2607 -19.0025
ltibia 10.9485
lfoot -14.7214 22.6922
ltoes -3.92207
832
root -0.0592491 18.7873 4.26988 -5.24796 -6.3845 -0.485034
lowerback 6.58485 1.17936 0.320646
upperback -2.35331 1.45986 -2.47719
thorax -6.07946 0.655117 -2.93861
lowerneck -10.2985 -5.4388 -7.34621
upperneck -20.3917 -5.47324 10.366
head -3.89768 -2.61306 4.47091
rclavicle 8.94531e-016 1.59028e-015
rhumerus 54.2881 -17.048 -43.9578
rradius 121.48
rwrist 15.3827
rhand -48.1902 18.0906
rfingers 7.12502
rthumb -20.8511 -10.8089
lclavicle 8.94531e-016 1.59028e-015
lhumerus -37.9522 16.4389 64.863
lradius 19.2473
lwrist -12.5425
lhand -26.1053 22.8853
lfingers 7.12502
lthumb 0.444057 52.8646
rfemur 0 0 0
rtibia 0
rfoot 0 0
rtoes 0
lfemur 9.36709 -10.3847 -18.9925
ltibia 10.9693
lfoot -14.8016 22.8509
ltoes -4.06883
833
root -0.0602375 18.7878 4.26999 -5.2265 -6.40533 -0.521684
lowerback 6.58799 1.18699 0.330886
upperback -2.40322 1.47005 -2.47765
thorax -6.13316 0.658743 -2.94746
lowerneck -10.3226 -5.43836 -7.39246
upperneck -20.6855 -5.43862 10.4746
head -3.98084 -2.59708 4.52286
rclavicle 3.18055e-014 -4.13472e-014
rhumerus 54.3598 -17.1418 -43.8507
rradius 121.506
rwrist 15.3476
rhand -48.2414 17.949
rfingers 7.12502
rthumb -20.9004 -10.9451
lclavicle 3.18055e-014 -4.13472e-014
lhumerus -37.9638 16.0814 65.1071
lradius 19.408
lwrist -11.7382
lhand -25.7882 22.4512
lfingers 7.12502
lthumb 0.750331 52.4296
rfemur 0 0 0
rtibia 0
rfoot 0 0
rtoes 0
lfemur 9.32981 -10.4211 -18.9553
ltibia 11.0121
lfoot -14.8445 22.9019
ltoes -4.06134
834
root -0.0612776 18.7876 4.26901 -5.18645 -6.37627 -0.551756
lowerback 6.60802 1.17813 0.339649
upperback -2.45625 1.45747 -2.4843
thorax -6.20095 0.650844 -2.95996
lowerneck -10.4776 -5.46671 -7.43797
upperneck -20.7863 -5.44731 10.5565
head -3.98225 -2.59765 4.5557
rclavicle -3.15074e-014 7.95139e-015
rhumerus 54.3997 -17.2804 -43.6532
rradius 121.483
rwrist 15.294
rhand -48.3581 17.4827
rfingers 7.12502
rthumb -21.0124 -11.399
lclavicle -3.15074e-014 7.95139e-015
lhumerus -37.9681 15.9213 65.2103
lradius 19.5208
lwrist -11.3652
lhand -25.6857 22.1866
lfingers 7.12502
lthumb 0.849284 52.1647
rfemur 0 0 0
rtibia 0
rfoot 0 0
rtoes 0
lfemur 9.26054 -10.4501 -18.9139
ltibia 11.0609
lfoot -14.876 22.9052
ltoes -3.8697
835
root -0.0624266 18.7868 4.27036 -5.17235 -6.38191 -0.596147
lowerback 6.60154 1.17225 0.357865
upperback -2.48846 1.45091 -2.4821
thorax -6.23123 0.646337 -2.96781
lowerneck -10.7309 -5.5114 -7.60382
upperneck -20.6825 -5.45468 10.7854
head -3.89474 -2.59234 4.64561
rclavicle 6.36111e-015 -4.77083e-015
rhumerus 54.4857 -17.4635 -43.4894
rradius 121.457
rwrist 15.1052
rhand -48.2926 17.3527
rfingers 7.12502
rthumb -20.9495 -11.5359
lclavicle 6.36111e-015 -4.77083e-015
lhumerus -37.9063 15.9259 65.1953
lradius 19.4483
lwrist -11.3837
lhand -25.8295 21.8806
lfingers 7.12502
lthumb 0.710374 51.8591
rfemur 0 0 0
rtibia 0
rfoot 0 0
rtoes 0
lfemur 9.25116 -10.5115 -18.8823
ltibia 11.0911
lfoot -14.9176 22.9707
ltoes -3.90775
